<svg width="1280" height="720" xmlns="http://www.w3.org/2000/svg" xmlns:xlink="http://www.w3.org/1999/xlink" overflow="hidden"><defs><filter id="fx0" x="-10%" y="-10%" width="120%" height="120%" filterUnits="userSpaceOnUse" primitiveUnits="userSpaceOnUse"><feComponentTransfer color-interpolation-filters="sRGB"><feFuncR type="discrete" tableValues="0 0"/><feFuncG type="discrete" tableValues="0 0"/><feFuncB type="discrete" tableValues="0 0"/><feFuncA type="linear" slope="0.4" intercept="0"/></feComponentTransfer><feGaussianBlur stdDeviation="1.77778 1.77778"/></filter><clipPath id="clip1"><path d="M844.167 64C837.447 64 832 69.4473 832 76.1669L832 124.833C832 131.553 837.447 137 844.167 137L935.833 137C942.553 137 948 131.553 948 124.833L948 76.1669C948 69.4473 942.553 64 935.833 64ZM1.90735e-05 1.07288e-05 1280 1.07288e-05 1280 720 1.90735e-05 720Z" fill-rule="evenodd" clip-rule="evenodd"/></clipPath></defs><g><rect x="0" y="0" width="1280" height="720" fill="#FFFFFF"/><path d="M257 425C257 328.35 335.35 250 432 250 528.65 250 607 328.35 607 425 607 521.65 528.65 600 432 600 335.35 600 257 521.65 257 425Z" stroke="#000000" stroke-width="6" stroke-miterlimit="8" fill="none" fill-rule="evenodd"/><path d="M717 425C717 328.35 795.35 250 892 250 988.65 250 1067 328.35 1067 425 1067 521.65 988.65 600 892 600 795.35 600 717 521.65 717 425Z" stroke="#000000" stroke-width="6" stroke-miterlimit="8" fill="none" fill-rule="evenodd"/><path d="M332 458.5C332 448.283 340.507 440 351 440 361.493 440 370 448.283 370 458.5 370 468.717 361.493 477 351 477 340.507 477 332 468.717 332 458.5Z" fill="#00B050" fill-rule="evenodd"/><path d="M377 486C377 475.507 385.507 467 396 467 406.493 467 415 475.507 415 486 415 496.493 406.493 505 396 505 385.507 505 377 496.493 377 486Z" fill="#00B050" fill-rule="evenodd"/><path d="M405 458.5C405 448.283 413.507 440 424 440 434.493 440 443 448.283 443 458.5 443 468.717 434.493 477 424 477 413.507 477 405 468.717 405 458.5Z" fill="#00B050" fill-rule="evenodd"/><path d="M349 383C349 372.507 357.283 364 367.5 364 377.717 364 386 372.507 386 383 386 393.493 377.717 402 367.5 402 357.283 402 349 393.493 349 383Z" fill="#00B050" fill-rule="evenodd"/><path d="M475 382C475 371.507 483.507 363 494 363 504.493 363 513 371.507 513 382 513 392.493 504.493 401 494 401 483.507 401 475 392.493 475 382Z" fill="#00B050" fill-rule="evenodd"/><path d="M498 467C498 456.507 506.283 448 516.5 448 526.717 448 535 456.507 535 467 535 477.493 526.717 486 516.5 486 506.283 486 498 477.493 498 467Z" fill="#00B050" fill-rule="evenodd"/><path d="M402 352C402 341.507 410.507 333 421 333 431.493 333 440 341.507 440 352 440 362.493 431.493 371 421 371 410.507 371 402 362.493 402 352Z" fill="#00B050" fill-rule="evenodd"/><path d="M526 396C526 385.507 534.283 377 544.5 377 554.717 377 563 385.507 563 396 563 406.493 554.717 415 544.5 415 534.283 415 526 406.493 526 396Z" fill="#00B050" fill-rule="evenodd"/><path d="M442 533C442 522.507 450.507 514 461 514 471.493 514 480 522.507 480 533 480 543.493 471.493 552 461 552 450.507 552 442 543.493 442 533Z" fill="#00B050" fill-rule="evenodd"/><path d="M460 311.5C460 301.283 468.507 293 479 293 489.493 293 498 301.283 498 311.5 498 321.717 489.493 330 479 330 468.507 330 460 321.717 460 311.5Z" fill="#00B050" fill-rule="evenodd"/><path d="M363 318C363 307.507 371.507 299 382 299 392.493 299 401 307.507 401 318 401 328.493 392.493 337 382 337 371.507 337 363 328.493 363 318Z" fill="#00B050" fill-rule="evenodd"/><path d="M451 458.5C451 448.283 459.507 440 470 440 480.493 440 489 448.283 489 458.5 489 468.717 480.493 477 470 477 459.507 477 451 468.717 451 458.5Z" fill="#00B050" fill-rule="evenodd"/><path d="M363 539C363 528.507 371.507 520 382 520 392.493 520 401 528.507 401 539 401 549.493 392.493 558 382 558 371.507 558 363 549.493 363 539Z" fill="#00B050" fill-rule="evenodd"/><path d="M538 446C538 435.507 546.507 427 557 427 567.493 427 576 435.507 576 446 576 456.493 567.493 465 557 465 546.507 465 538 456.493 538 446Z" fill="#00B050" fill-rule="evenodd"/><path d="M294 397C294 386.507 302.507 378 313 378 323.493 378 332 386.507 332 397 332 407.493 323.493 416 313 416 302.507 416 294 407.493 294 397Z" fill="#00B050" fill-rule="evenodd"/><path d="M316 510C316 499.507 324.507 491 335 491 345.493 491 354 499.507 354 510 354 520.493 345.493 529 335 529 324.507 529 316 520.493 316 510Z" fill="#00B050" fill-rule="evenodd"/><path d="M394 397C394 386.507 402.507 378 413 378 423.493 378 432 386.507 432 397 432 407.493 423.493 416 413 416 402.507 416 394 407.493 394 397Z" fill="#7030A0" fill-rule="evenodd"/><path d="M376 440C376 429.507 384.507 421 395 421 405.493 421 414 429.507 414 440 414 450.493 405.493 459 395 459 384.507 459 376 450.493 376 440Z" fill="#00B050" fill-rule="evenodd"/><path d="M520 346C520 335.507 528.507 327 539 327 549.493 327 558 335.507 558 346 558 356.493 549.493 365 539 365 528.507 365 520 356.493 520 346Z" fill="#00B050" fill-rule="evenodd"/><path d="M516 516C516 505.507 524.507 497 535 497 545.493 497 554 505.507 554 516 554 526.493 545.493 535 535 535 524.507 535 516 526.493 516 516Z" fill="#7030A0" fill-rule="evenodd"/><path d="M875 565C875 554.507 883.507 546 894 546 904.493 546 913 554.507 913 565 913 575.493 904.493 584 894 584 883.507 584 875 575.493 875 565Z" fill="#7030A0" fill-rule="evenodd"/><path d="M852 390C852 379.507 860.507 371 871 371 881.493 371 890 379.507 890 390 890 400.493 881.493 409 871 409 860.507 409 852 400.493 852 390Z" fill="#7030A0" fill-rule="evenodd"/><path d="M787 381C787 370.507 795.283 362 805.5 362 815.717 362 824 370.507 824 381 824 391.493 815.717 400 805.5 400 795.283 400 787 391.493 787 381Z" fill="#7030A0" fill-rule="evenodd"/><path d="M906 510.5C906 500.283 914.283 492 924.5 492 934.717 492 943 500.283 943 510.5 943 520.717 934.717 529 924.5 529 914.283 529 906 520.717 906 510.5Z" fill="#7030A0" fill-rule="evenodd"/><path d="M867 436.5C867 426.283 875.507 418 886 418 896.493 418 905 426.283 905 436.5 905 446.717 896.493 455 886 455 875.507 455 867 446.717 867 436.5Z" fill="#7030A0" fill-rule="evenodd"/><path d="M981 344.5C981 334.283 989.507 326 1000 326 1010.49 326 1019 334.283 1019 344.5 1019 354.717 1010.49 363 1000 363 989.507 363 981 354.717 981 344.5Z" fill="#7030A0" fill-rule="evenodd"/><path d="M756 463C756 452.507 764.507 444 775 444 785.493 444 794 452.507 794 463 794 473.493 785.493 482 775 482 764.507 482 756 473.493 756 463Z" fill="#7030A0" fill-rule="evenodd"/><path d="M775 312C775 301.507 783.507 293 794 293 804.493 293 813 301.507 813 312 813 322.493 804.493 331 794 331 783.507 331 775 322.493 775 312Z" fill="#7030A0" fill-rule="evenodd"/><path d="M916 321C916 310.507 924.507 302 935 302 945.493 302 954 310.507 954 321 954 331.493 945.493 340 935 340 924.507 340 916 331.493 916 321Z" fill="#7030A0" fill-rule="evenodd"/><path d="M826 297C826 286.507 834.283 278 844.5 278 854.717 278 863 286.507 863 297 863 307.493 854.717 316 844.5 316 834.283 316 826 307.493 826 297Z" fill="#7030A0" fill-rule="evenodd"/><path d="M815 475C815 464.507 823.283 456 833.5 456 843.717 456 852 464.507 852 475 852 485.493 843.717 494 833.5 494 823.283 494 815 485.493 815 475Z" fill="#7030A0" fill-rule="evenodd"/><path d="M858 329C858 318.507 866.283 310 876.5 310 886.717 310 895 318.507 895 329 895 339.493 886.717 348 876.5 348 866.283 348 858 339.493 858 329Z" fill="#7030A0" fill-rule="evenodd"/><path d="M974 483C974 472.507 982.507 464 993 464 1003.49 464 1012 472.507 1012 483 1012 493.493 1003.49 502 993 502 982.507 502 974 493.493 974 483Z" fill="#7030A0" fill-rule="evenodd"/><path d="M836 510C836 499.507 844.507 491 855 491 865.493 491 874 499.507 874 510 874 520.493 865.493 529 855 529 844.507 529 836 520.493 836 510Z" fill="#7030A0" fill-rule="evenodd"/><path d="M906 377C906 366.507 914.283 358 924.5 358 934.717 358 943 366.507 943 377 943 387.493 934.717 396 924.5 396 914.283 396 906 387.493 906 377Z" fill="#7030A0" fill-rule="evenodd"/><path d="M1004 402.5C1004 392.283 1012.28 384 1022.5 384 1032.72 384 1041 392.283 1041 402.5 1041 412.717 1032.72 421 1022.5 421 1012.28 421 1004 412.717 1004 402.5Z" fill="#7030A0" fill-rule="evenodd"/><path d="M917 462C917 451.507 925.507 443 936 443 946.493 443 955 451.507 955 462 955 472.493 946.493 481 936 481 925.507 481 917 472.493 917 462Z" fill="#7030A0" fill-rule="evenodd"/><path d="M954 425C954 414.507 962.283 406 972.5 406 982.717 406 991 414.507 991 425 991 435.493 982.717 444 972.5 444 962.283 444 954 435.493 954 425Z" fill="#7030A0" fill-rule="evenodd"/><path d="M952 384C952 373.507 960.507 365 971 365 981.493 365 990 373.507 990 384 990 394.493 981.493 403 971 403 960.507 403 952 394.493 952 384Z" fill="#00B050" fill-rule="evenodd"/><path d="M875 687C875 676.507 883.507 668 894 668 904.493 668 913 676.507 913 687 913 697.493 904.493 706 894 706 883.507 706 875 697.493 875 687Z" fill="#00B050" fill-rule="evenodd"/><path d="M366 76.1669C366 69.4473 371.447 64 378.167 64L469.833 64C476.553 64 482 69.4473 482 76.1669L482 124.833C482 131.553 476.553 137 469.833 137L378.167 137C371.447 137 366 131.553 366 124.833Z" stroke="#000000" stroke-width="4" stroke-miterlimit="8" fill="#FFFF00" fill-rule="evenodd"/><g clip-path="url(#clip1)"><g filter="url(#fx0)" transform="translate(826 58)"><g><path d="M8.82843 20.9954C8.82843 14.2758 14.2758 8.82843 20.9954 8.82843L112.661 8.82843C119.381 8.82843 124.828 14.2758 124.828 20.9954L124.828 69.6615C124.828 76.3811 119.381 81.8284 112.661 81.8284L20.9954 81.8284C14.2758 81.8284 8.82843 76.3811 8.82843 69.6615Z" stroke="#000000" stroke-width="4" stroke-miterlimit="8" fill="#D9D9D9" fill-rule="evenodd"/></g></g></g><path d="M832 76.1669C832 69.4473 837.447 64 844.167 64L935.833 64C942.553 64 948 69.4473 948 76.1669L948 124.833C948 131.553 942.553 137 935.833 137L844.167 137C837.447 137 832 131.553 832 124.833Z" stroke="#000000" stroke-width="4" stroke-miterlimit="8" fill="#D9D9D9" fill-rule="evenodd"/><text font-family="Aptos,Aptos_MSFontService,sans-serif" font-weight="400" font-size="48" transform="translate(406.92 114)">G</text><text font-family="Aptos,Aptos_MSFontService,sans-serif" font-weight="400" font-size="48" transform="translate(876.299 115)">P</text><path d="M424.359 145.238 762.039 267.206 759.321 274.73 421.641 152.762ZM763.712 250.798 779.49 277.762 750.124 288.419Z"/><path d="M128 139.339C128 83.3708 173.371 38 229.338 38L1081.66 38C1137.63 38 1183 83.3708 1183 139.339L1183 544.68C1183 600.648 1137.63 646.018 1081.66 646.018L229.338 646.018C173.371 646.018 128 600.648 128 544.68Z" stroke="#042433" stroke-width="8" stroke-miterlimit="8" fill="none" fill-rule="evenodd"/><path d="M414 600 414 645.592" stroke="#000000" stroke-width="6" stroke-miterlimit="8" fill="none" fill-rule="evenodd"/><path d="M447 600 447 645.592" stroke="#000000" stroke-width="6" stroke-miterlimit="8" fill="none" fill-rule="evenodd"/><path d="M877 600 877 645.592" stroke="#000000" stroke-width="6" stroke-miterlimit="8" fill="none" fill-rule="evenodd"/><path d="M910 600 910 645.592" stroke="#000000" stroke-width="6" stroke-miterlimit="8" fill="none" fill-rule="evenodd"/><rect x="880" y="594" width="27" height="60" stroke="#FFFFFF" stroke-width="2" stroke-miterlimit="8" fill="#FFFFFF"/></g></svg>