<svg width="1280" height="720" xmlns="http://www.w3.org/2000/svg" xmlns:xlink="http://www.w3.org/1999/xlink" overflow="hidden"><defs><filter id="fx0" x="-10%" y="-10%" width="120%" height="120%" filterUnits="userSpaceOnUse" primitiveUnits="userSpaceOnUse"><feComponentTransfer color-interpolation-filters="sRGB"><feFuncR type="discrete" tableValues="0 0"/><feFuncG type="discrete" tableValues="0 0"/><feFuncB type="discrete" tableValues="0 0"/><feFuncA type="linear" slope="0.4" intercept="0"/></feComponentTransfer><feGaussianBlur stdDeviation="1.77778 1.77778"/></filter><filter id="fx1" x="-10%" y="-10%" width="120%" height="120%" filterUnits="userSpaceOnUse" primitiveUnits="userSpaceOnUse"><feComponentTransfer color-interpolation-filters="sRGB"><feFuncR type="discrete" tableValues="0 0"/><feFuncG type="discrete" tableValues="0 0"/><feFuncB type="discrete" tableValues="0 0"/><feFuncA type="linear" slope="0.4" intercept="0"/></feComponentTransfer><feGaussianBlur stdDeviation="1.77778 1.77778"/></filter><clipPath id="clip2"><path d="M378.167 89C371.447 89 366 94.4473 366 101.167L366 149.833C366 156.553 371.447 162 378.167 162L469.833 162C476.553 162 482 156.553 482 149.833L482 101.167C482 94.4473 476.553 89 469.833 89ZM1.90735e-05 1.07288e-05 1280 1.07288e-05 1280 720 1.90735e-05 720Z" fill-rule="evenodd" clip-rule="evenodd"/></clipPath><clipPath id="clip3"><path d="M844.167 89C837.447 89 832 94.4473 832 101.167L832 149.833C832 156.553 837.447 162 844.167 162L935.833 162C942.553 162 948 156.553 948 149.833L948 101.167C948 94.4473 942.553 89 935.833 89ZM1.90735e-05 1.07288e-05 1280 1.07288e-05 1280 720 1.90735e-05 720Z" fill-rule="evenodd" clip-rule="evenodd"/></clipPath></defs><g><rect x="0" y="0" width="1280" height="720" fill="#FFFFFF"/><path d="M257 450C257 353.35 335.35 275 432 275 528.65 275 607 353.35 607 450 607 546.65 528.65 625 432 625 335.35 625 257 546.65 257 450Z" stroke="#000000" stroke-width="6" stroke-miterlimit="8" fill="none" fill-rule="evenodd"/><path d="M717 450.5C717 353.574 795.35 275 892 275 988.65 275 1067 353.574 1067 450.5 1067 547.426 988.65 626 892 626 795.35 626 717 547.426 717 450.5Z" stroke="#000000" stroke-width="6" stroke-miterlimit="8" fill="none" fill-rule="evenodd"/><path d="M332 484C332 473.507 340.507 465 351 465 361.493 465 370 473.507 370 484 370 494.493 361.493 503 351 503 340.507 503 332 494.493 332 484Z" fill="#00B050" fill-rule="evenodd"/><path d="M377 511.5C377 501.283 385.507 493 396 493 406.493 493 415 501.283 415 511.5 415 521.717 406.493 530 396 530 385.507 530 377 521.717 377 511.5Z" fill="#00B050" fill-rule="evenodd"/><path d="M405 484C405 473.507 413.507 465 424 465 434.493 465 443 473.507 443 484 443 494.493 434.493 503 424 503 413.507 503 405 494.493 405 484Z" fill="#00B050" fill-rule="evenodd"/><path d="M349 409C349 398.507 357.283 390 367.5 390 377.717 390 386 398.507 386 409 386 419.493 377.717 428 367.5 428 357.283 428 349 419.493 349 409Z" fill="#00B050" fill-rule="evenodd"/><path d="M475 407C475 396.507 483.507 388 494 388 504.493 388 513 396.507 513 407 513 417.493 504.493 426 494 426 483.507 426 475 417.493 475 407Z" fill="#00B050" fill-rule="evenodd"/><path d="M498 492.5C498 482.283 506.283 474 516.5 474 526.717 474 535 482.283 535 492.5 535 502.717 526.717 511 516.5 511 506.283 511 498 502.717 498 492.5Z" fill="#00B050" fill-rule="evenodd"/><path d="M402 377C402 366.507 410.507 358 421 358 431.493 358 440 366.507 440 377 440 387.493 431.493 396 421 396 410.507 396 402 387.493 402 377Z" fill="#00B050" fill-rule="evenodd"/><path d="M526 421C526 410.507 534.283 402 544.5 402 554.717 402 563 410.507 563 421 563 431.493 554.717 440 544.5 440 534.283 440 526 431.493 526 421Z" fill="#00B050" fill-rule="evenodd"/><path d="M442 558.5C442 548.283 450.507 540 461 540 471.493 540 480 548.283 480 558.5 480 568.717 471.493 577 461 577 450.507 577 442 568.717 442 558.5Z" fill="#00B050" fill-rule="evenodd"/><path d="M460 337C460 326.507 468.507 318 479 318 489.493 318 498 326.507 498 337 498 347.493 489.493 356 479 356 468.507 356 460 347.493 460 337Z" fill="#00B050" fill-rule="evenodd"/><path d="M363 343.5C363 333.283 371.507 325 382 325 392.493 325 401 333.283 401 343.5 401 353.717 392.493 362 382 362 371.507 362 363 353.717 363 343.5Z" fill="#00B050" fill-rule="evenodd"/><path d="M451 484C451 473.507 459.507 465 470 465 480.493 465 489 473.507 489 484 489 494.493 480.493 503 470 503 459.507 503 451 494.493 451 484Z" fill="#00B050" fill-rule="evenodd"/><path d="M363 564C363 553.507 371.507 545 382 545 392.493 545 401 553.507 401 564 401 574.493 392.493 583 382 583 371.507 583 363 574.493 363 564Z" fill="#00B050" fill-rule="evenodd"/><path d="M538 471.5C538 461.283 546.507 453 557 453 567.493 453 576 461.283 576 471.5 576 481.717 567.493 490 557 490 546.507 490 538 481.717 538 471.5Z" fill="#00B050" fill-rule="evenodd"/><path d="M294 422.5C294 412.283 302.507 404 313 404 323.493 404 332 412.283 332 422.5 332 432.717 323.493 441 313 441 302.507 441 294 432.717 294 422.5Z" fill="#00B050" fill-rule="evenodd"/><path d="M316 535C316 524.507 324.507 516 335 516 345.493 516 354 524.507 354 535 354 545.493 345.493 554 335 554 324.507 554 316 545.493 316 535Z" fill="#00B050" fill-rule="evenodd"/><path d="M394 422C394 411.507 402.507 403 413 403 423.493 403 432 411.507 432 422 432 432.493 423.493 441 413 441 402.507 441 394 432.493 394 422Z" fill="#7030A0" fill-rule="evenodd"/><path d="M376 465.5C376 455.283 384.507 447 395 447 405.493 447 414 455.283 414 465.5 414 475.717 405.493 484 395 484 384.507 484 376 475.717 376 465.5Z" fill="#00B050" fill-rule="evenodd"/><path d="M520 371C520 360.507 528.507 352 539 352 549.493 352 558 360.507 558 371 558 381.493 549.493 390 539 390 528.507 390 520 381.493 520 371Z" fill="#00B050" fill-rule="evenodd"/><path d="M516 541.5C516 531.283 524.507 523 535 523 545.493 523 554 531.283 554 541.5 554 551.717 545.493 560 535 560 524.507 560 516 551.717 516 541.5Z" fill="#7030A0" fill-rule="evenodd"/><path d="M875 590C875 579.507 883.507 571 894 571 904.493 571 913 579.507 913 590 913 600.493 904.493 609 894 609 883.507 609 875 600.493 875 590Z" fill="#7030A0" fill-rule="evenodd"/><path d="M852 416C852 405.507 860.507 397 871 397 881.493 397 890 405.507 890 416 890 426.493 881.493 435 871 435 860.507 435 852 426.493 852 416Z" fill="#7030A0" fill-rule="evenodd"/><path d="M787 406C787 395.507 795.283 387 805.5 387 815.717 387 824 395.507 824 406 824 416.493 815.717 425 805.5 425 795.283 425 787 416.493 787 406Z" fill="#7030A0" fill-rule="evenodd"/><path d="M906 536C906 525.507 914.283 517 924.5 517 934.717 517 943 525.507 943 536 943 546.493 934.717 555 924.5 555 914.283 555 906 546.493 906 536Z" fill="#7030A0" fill-rule="evenodd"/><path d="M867 462C867 451.507 875.507 443 886 443 896.493 443 905 451.507 905 462 905 472.493 896.493 481 886 481 875.507 481 867 472.493 867 462Z" fill="#7030A0" fill-rule="evenodd"/><path d="M981 370C981 359.507 989.507 351 1000 351 1010.49 351 1019 359.507 1019 370 1019 380.493 1010.49 389 1000 389 989.507 389 981 380.493 981 370Z" fill="#7030A0" fill-rule="evenodd"/><path d="M756 488C756 477.507 764.507 469 775 469 785.493 469 794 477.507 794 488 794 498.493 785.493 507 775 507 764.507 507 756 498.493 756 488Z" fill="#7030A0" fill-rule="evenodd"/><path d="M775 338C775 327.507 783.507 319 794 319 804.493 319 813 327.507 813 338 813 348.493 804.493 357 794 357 783.507 357 775 348.493 775 338Z" fill="#7030A0" fill-rule="evenodd"/><path d="M916 346C916 335.507 924.507 327 935 327 945.493 327 954 335.507 954 346 954 356.493 945.493 365 935 365 924.507 365 916 356.493 916 346Z" fill="#7030A0" fill-rule="evenodd"/><path d="M826 322C826 311.507 834.283 303 844.5 303 854.717 303 863 311.507 863 322 863 332.493 854.717 341 844.5 341 834.283 341 826 332.493 826 322Z" fill="#7030A0" fill-rule="evenodd"/><path d="M815 500C815 489.507 823.283 481 833.5 481 843.717 481 852 489.507 852 500 852 510.493 843.717 519 833.5 519 823.283 519 815 510.493 815 500Z" fill="#7030A0" fill-rule="evenodd"/><path d="M858 354C858 343.507 866.283 335 876.5 335 886.717 335 895 343.507 895 354 895 364.493 886.717 373 876.5 373 866.283 373 858 364.493 858 354Z" fill="#7030A0" fill-rule="evenodd"/><path d="M974 508C974 497.507 982.507 489 993 489 1003.49 489 1012 497.507 1012 508 1012 518.493 1003.49 527 993 527 982.507 527 974 518.493 974 508Z" fill="#7030A0" fill-rule="evenodd"/><path d="M836 535.5C836 525.283 844.507 517 855 517 865.493 517 874 525.283 874 535.5 874 545.717 865.493 554 855 554 844.507 554 836 545.717 836 535.5Z" fill="#7030A0" fill-rule="evenodd"/><path d="M906 402C906 391.507 914.283 383 924.5 383 934.717 383 943 391.507 943 402 943 412.493 934.717 421 924.5 421 914.283 421 906 412.493 906 402Z" fill="#7030A0" fill-rule="evenodd"/><path d="M1004 428C1004 417.507 1012.28 409 1022.5 409 1032.72 409 1041 417.507 1041 428 1041 438.493 1032.72 447 1022.5 447 1012.28 447 1004 438.493 1004 428Z" fill="#7030A0" fill-rule="evenodd"/><path d="M917 487C917 476.507 925.507 468 936 468 946.493 468 955 476.507 955 487 955 497.493 946.493 506 936 506 925.507 506 917 497.493 917 487Z" fill="#7030A0" fill-rule="evenodd"/><path d="M954 450C954 439.507 962.283 431 972.5 431 982.717 431 991 439.507 991 450 991 460.493 982.717 469 972.5 469 962.283 469 954 460.493 954 450Z" fill="#7030A0" fill-rule="evenodd"/><path d="M952 409C952 398.507 960.507 390 971 390 981.493 390 990 398.507 990 409 990 419.493 981.493 428 971 428 960.507 428 952 419.493 952 409Z" fill="#00B050" fill-rule="evenodd"/><path d="M779 453C779 442.507 787.507 434 798 434 808.493 434 817 442.507 817 453 817 463.493 808.493 472 798 472 787.507 472 779 463.493 779 453Z" fill="#00B050" fill-rule="evenodd"/><g clip-path="url(#clip2)"><g filter="url(#fx0)" transform="translate(360 83)"><g><path d="M8.82843 20.9954C8.82843 14.2758 14.2758 8.82843 20.9954 8.82843L112.661 8.82843C119.381 8.82843 124.828 14.2758 124.828 20.9954L124.828 69.6615C124.828 76.3811 119.381 81.8284 112.661 81.8284L20.9954 81.8284C14.2758 81.8284 8.82843 76.3811 8.82843 69.6615Z" stroke="#000000" stroke-width="4" stroke-miterlimit="8" fill="#D9D9D9" fill-rule="evenodd"/></g></g></g><path d="M366 101.167C366 94.4473 371.447 89 378.167 89L469.833 89C476.553 89 482 94.4473 482 101.167L482 149.833C482 156.553 476.553 162 469.833 162L378.167 162C371.447 162 366 156.553 366 149.833Z" stroke="#000000" stroke-width="4" stroke-miterlimit="8" fill="#D9D9D9" fill-rule="evenodd"/><g clip-path="url(#clip3)"><g filter="url(#fx1)" transform="translate(826 83)"><g><path d="M8.82843 20.9954C8.82843 14.2758 14.2758 8.82843 20.9954 8.82843L112.661 8.82843C119.381 8.82843 124.828 14.2758 124.828 20.9954L124.828 69.6615C124.828 76.3811 119.381 81.8284 112.661 81.8284L20.9954 81.8284C14.2758 81.8284 8.82843 76.3811 8.82843 69.6615Z" stroke="#000000" stroke-width="4" stroke-miterlimit="8" fill="#D9D9D9" fill-rule="evenodd"/></g></g></g><path d="M832 101.167C832 94.4473 837.447 89 844.167 89L935.833 89C942.553 89 948 94.4473 948 101.167L948 149.833C948 156.553 942.553 162 935.833 162L844.167 162C837.447 162 832 156.553 832 149.833Z" stroke="#000000" stroke-width="4" stroke-miterlimit="8" fill="#D9D9D9" fill-rule="evenodd"/><text font-family="Aptos,Aptos_MSFontService,sans-serif" font-weight="400" font-size="48" transform="translate(406.92 139)">G</text><text font-family="Aptos,Aptos_MSFontService,sans-serif" font-weight="400" font-size="48" transform="translate(876.299 140)">P</text><path d="M427 174 427 239.751 419 239.751 419 174ZM443 235.751 423 259.751 403 235.751Z"/><path d="M896 174 896 239.751 888 239.751 888 174ZM912 235.751 892 259.751 872 235.751Z"/><path d="M128 164.335C128 108.369 173.369 63 229.335 63L1081.67 63C1137.63 63 1183 108.369 1183 164.335L1183 569.665C1183 625.631 1137.63 671 1081.67 671L229.335 671C173.369 671 128 625.631 128 569.665Z" stroke="#042433" stroke-width="8" stroke-miterlimit="8" fill="none" fill-rule="evenodd"/><path d="M414 625 414 670.592" stroke="#000000" stroke-width="6" stroke-miterlimit="8" fill="none" fill-rule="evenodd"/><path d="M447 625 447 670.592" stroke="#000000" stroke-width="6" stroke-miterlimit="8" fill="none" fill-rule="evenodd"/><path d="M877 625 877 670.592" stroke="#000000" stroke-width="6" stroke-miterlimit="8" fill="none" fill-rule="evenodd"/><path d="M910 625 910 670.592" stroke="#000000" stroke-width="6" stroke-miterlimit="8" fill="none" fill-rule="evenodd"/></g></svg>