<svg width="529" height="529" xmlns="http://www.w3.org/2000/svg" xmlns:xlink="http://www.w3.org/1999/xlink" overflow="hidden"><defs><clipPath id="clip0"><rect x="0" y="0" width="529" height="529"/></clipPath></defs><g clip-path="url(#clip0)"><rect x="0" y="0" width="529" height="529" fill="#FFFFFF"/><path d="M91 258.5C91 161.574 169.35 83 266 83 362.65 83 441 161.574 441 258.5 441 355.426 362.65 434 266 434 169.35 434 91 355.426 91 258.5Z" stroke="#000000" stroke-width="5.99811" stroke-miterlimit="8" fill="none" fill-rule="evenodd"/><path d="M250 398C250 387.507 258.283 379 268.5 379 278.717 379 287 387.507 287 398 287 408.493 278.717 417 268.5 417 258.283 417 250 408.493 250 398Z" fill="#7030A0" fill-rule="evenodd"/><path d="M227 223.5C227 213.283 235.283 205 245.5 205 255.717 205 264 213.283 264 223.5 264 233.717 255.717 242 245.5 242 235.283 242 227 233.717 227 223.5Z" fill="#7030A0" fill-rule="evenodd"/><path d="M161 214C161 203.507 169.507 195 180 195 190.493 195 199 203.507 199 214 199 224.493 190.493 233 180 233 169.507 233 161 224.493 161 214Z" fill="#7030A0" fill-rule="evenodd"/><path d="M280 344C280 333.507 288.507 325 299 325 309.493 325 318 333.507 318 344 318 354.493 309.493 363 299 363 288.507 363 280 354.493 280 344Z" fill="#7030A0" fill-rule="evenodd"/><path d="M241 270C241 259.507 249.507 251 260 251 270.493 251 279 259.507 279 270 279 280.493 270.493 289 260 289 249.507 289 241 280.493 241 270Z" fill="#7030A0" fill-rule="evenodd"/><path d="M355 178C355 167.507 363.507 159 374 159 384.493 159 393 167.507 393 178 393 188.493 384.493 197 374 197 363.507 197 355 188.493 355 178Z" fill="#7030A0" fill-rule="evenodd"/><path d="M130 296C130 285.507 138.507 277 149 277 159.493 277 168 285.507 168 296 168 306.493 159.493 315 149 315 138.507 315 130 306.493 130 296Z" fill="#7030A0" fill-rule="evenodd"/><path d="M149 145.5C149 135.283 157.507 127 168 127 178.493 127 187 135.283 187 145.5 187 155.717 178.493 164 168 164 157.507 164 149 155.717 149 145.5Z" fill="#7030A0" fill-rule="evenodd"/><path d="M291 154C291 143.507 299.283 135 309.5 135 319.717 135 328 143.507 328 154 328 164.493 319.717 173 309.5 173 299.283 173 291 164.493 291 154Z" fill="#7030A0" fill-rule="evenodd"/><path d="M200 130C200 119.507 208.507 111 219 111 229.493 111 238 119.507 238 130 238 140.493 229.493 149 219 149 208.507 149 200 140.493 200 130Z" fill="#7030A0" fill-rule="evenodd"/><path d="M189 308C189 297.507 197.507 289 208 289 218.493 289 227 297.507 227 308 227 318.493 218.493 327 208 327 197.507 327 189 318.493 189 308Z" fill="#7030A0" fill-rule="evenodd"/><path d="M232 162C232 151.507 240.507 143 251 143 261.493 143 270 151.507 270 162 270 172.493 261.493 181 251 181 240.507 181 232 172.493 232 162Z" fill="#7030A0" fill-rule="evenodd"/><path d="M348 316C348 305.507 356.507 297 367 297 377.493 297 386 305.507 386 316 386 326.493 377.493 335 367 335 356.507 335 348 326.493 348 316Z" fill="#7030A0" fill-rule="evenodd"/><path d="M210 343.5C210 333.283 218.507 325 229 325 239.493 325 248 333.283 248 343.5 248 353.717 239.493 362 229 362 218.507 362 210 353.717 210 343.5Z" fill="#7030A0" fill-rule="evenodd"/><path d="M280 210C280 199.507 288.507 191 299 191 309.493 191 318 199.507 318 210 318 220.493 309.493 229 299 229 288.507 229 280 220.493 280 210Z" fill="#7030A0" fill-rule="evenodd"/><path d="M378 236C378 225.507 386.507 217 397 217 407.493 217 416 225.507 416 236 416 246.493 407.493 255 397 255 386.507 255 378 246.493 378 236Z" fill="#7030A0" fill-rule="evenodd"/><path d="M291 295C291 284.507 299.507 276 310 276 320.493 276 329 284.507 329 295 329 305.493 320.493 314 310 314 299.507 314 291 305.493 291 295Z" fill="#7030A0" fill-rule="evenodd"/><path d="M328 258C328 247.507 336.507 239 347 239 357.493 239 366 247.507 366 258 366 268.493 357.493 277 347 277 336.507 277 328 268.493 328 258Z" fill="#7030A0" fill-rule="evenodd"/><path d="M327 217C327 206.507 335.507 198 346 198 356.493 198 365 206.507 365 217 365 227.493 356.493 236 346 236 335.507 236 327 227.493 327 217Z" fill="#00B050" fill-rule="evenodd"/><path d="M154 261C154 250.507 162.507 242 173 242 183.493 242 192 250.507 192 261 192 271.493 183.493 280 173 280 162.507 280 154 271.493 154 261Z" fill="#00B050" fill-rule="evenodd"/></g></svg>