<svg width="605" height="643" xmlns="http://www.w3.org/2000/svg" xmlns:xlink="http://www.w3.org/1999/xlink" overflow="hidden"><defs><filter id="fx0" x="-10%" y="-10%" width="120%" height="120%" filterUnits="userSpaceOnUse" primitiveUnits="userSpaceOnUse"><feComponentTransfer color-interpolation-filters="sRGB"><feFuncR type="discrete" tableValues="0 0"/><feFuncG type="discrete" tableValues="0 0"/><feFuncB type="discrete" tableValues="0 0"/><feFuncA type="linear" slope="0.4" intercept="0"/></feComponentTransfer><feGaussianBlur stdDeviation="1.77876 1.77916"/></filter><clipPath id="clip1"><rect x="0" y="0" width="605" height="643"/></clipPath><clipPath id="clip2"><path d="M257.167 39.0088C250.447 39.0088 245 44.4574 245 51.1785L245 99.8557C245 106.577 250.447 112.025 257.167 112.025L347.833 112.025C354.553 112.025 360 106.577 360 99.8557L360 51.1785C360 44.4574 354.553 39.0088 347.833 39.0088ZM9.0152e-06 9.58145e-06 605 9.58145e-06 605 643 9.0152e-06 643Z" fill-rule="evenodd" clip-rule="evenodd"/></clipPath></defs><g clip-path="url(#clip1)"><rect x="0" y="0" width="605" height="643.146" fill="#FFFFFF"/><path d="M129 400.591C129 303.643 207.35 225.051 304 225.051 400.65 225.051 479 303.643 479 400.591 479 497.539 400.65 576.131 304 576.131 207.35 576.131 129 497.539 129 400.591Z" stroke="#000000" stroke-width="6.00331" stroke-miterlimit="8" fill="none" fill-rule="evenodd"/><path d="M288 540.623C288 530.403 296.283 522.118 306.5 522.118 316.717 522.118 325 530.403 325 540.623 325 550.842 316.717 559.127 306.5 559.127 296.283 559.127 288 550.842 288 540.623Z" fill="#7030A0" fill-rule="evenodd"/><path d="M265 366.083C265 355.587 273.283 347.079 283.5 347.079 293.717 347.079 302 355.587 302 366.083 302 376.579 293.717 385.087 283.5 385.087 273.283 385.087 265 376.579 265 366.083Z" fill="#7030A0" fill-rule="evenodd"/><path d="M199 356.581C199 346.361 207.507 338.077 218 338.077 228.493 338.077 237 346.361 237 356.581 237 366.8 228.493 375.085 218 375.085 207.507 375.085 199 366.8 199 356.581Z" fill="#7030A0" fill-rule="evenodd"/><path d="M318 486.11C318 475.614 326.507 467.106 337 467.106 347.493 467.106 356 475.614 356 486.11 356 496.606 347.493 505.115 337 505.115 326.507 505.115 318 496.606 318 486.11Z" fill="#7030A0" fill-rule="evenodd"/><path d="M279 412.093C279 401.598 287.507 393.089 298 393.089 308.493 393.089 317 401.598 317 412.093 317 422.589 308.493 431.098 298 431.098 287.507 431.098 279 422.589 279 412.093Z" fill="#7030A0" fill-rule="evenodd"/><path d="M393 320.073C393 309.577 401.507 301.068 412 301.068 422.493 301.068 431 309.577 431 320.073 431 330.568 422.493 339.077 412 339.077 401.507 339.077 393 330.568 393 320.073Z" fill="#7030A0" fill-rule="evenodd"/><path d="M168 438.599C168 428.38 176.507 420.095 187 420.095 197.493 420.095 206 428.38 206 438.599 206 448.819 197.493 457.104 187 457.104 176.507 457.104 168 448.819 168 438.599Z" fill="#7030A0" fill-rule="evenodd"/><path d="M187 288.065C187 277.569 195.507 269.061 206 269.061 216.493 269.061 225 277.569 225 288.065 225 298.561 216.493 307.07 206 307.07 195.507 307.07 187 298.561 187 288.065Z" fill="#7030A0" fill-rule="evenodd"/><path d="M329 296.067C329 285.571 337.283 277.063 347.5 277.063 357.717 277.063 366 285.571 366 296.067 366 306.563 357.717 315.071 347.5 315.071 337.283 315.071 329 306.563 329 296.067Z" fill="#7030A0" fill-rule="evenodd"/><path d="M238 272.062C238 261.566 246.507 253.057 257 253.057 267.493 253.057 276 261.566 276 272.062 276 282.557 267.493 291.066 257 291.066 246.507 291.066 238 282.557 238 272.062Z" fill="#7030A0" fill-rule="evenodd"/><path d="M227 450.602C227 440.383 235.507 432.098 246 432.098 256.493 432.098 265 440.383 265 450.602 265 460.822 256.493 469.106 246 469.106 235.507 469.106 227 460.822 227 450.602Z" fill="#7030A0" fill-rule="evenodd"/><path d="M270 304.069C270 293.573 278.507 285.065 289 285.065 299.493 285.065 308 293.573 308 304.069 308 314.565 299.493 323.073 289 323.073 278.507 323.073 270 314.565 270 304.069Z" fill="#7030A0" fill-rule="evenodd"/><path d="M387 458.104C387 447.608 395.283 439.1 405.5 439.1 415.717 439.1 424 447.608 424 458.104 424 468.6 415.717 477.108 405.5 477.108 395.283 477.108 387 468.6 387 458.104Z" fill="#7030A0" fill-rule="evenodd"/><path d="M248 486.11C248 475.614 256.507 467.106 267 467.106 277.493 467.106 286 475.614 286 486.11 286 496.606 277.493 505.115 267 505.115 256.507 505.115 248 496.606 248 486.11Z" fill="#7030A0" fill-rule="evenodd"/><path d="M318 352.08C318 341.584 326.507 333.075 337 333.075 347.493 333.075 356 341.584 356 352.08 356 362.576 347.493 371.084 337 371.084 326.507 371.084 318 362.576 318 352.08Z" fill="#7030A0" fill-rule="evenodd"/><path d="M416 378.086C416 367.59 424.507 359.081 435 359.081 445.493 359.081 454 367.59 454 378.086 454 388.582 445.493 397.09 435 397.09 424.507 397.09 416 388.582 416 378.086Z" fill="#7030A0" fill-rule="evenodd"/><path d="M329 437.599C329 427.38 337.507 419.095 348 419.095 358.493 419.095 367 427.38 367 437.599 367 447.819 358.493 456.103 348 456.103 337.507 456.103 329 447.819 329 437.599Z" fill="#7030A0" fill-rule="evenodd"/><path d="M366 400.091C366 389.595 374.507 381.086 385 381.086 395.493 381.086 404 389.595 404 400.091 404 410.587 395.493 419.095 385 419.095 374.507 419.095 366 410.587 366 400.091Z" fill="#7030A0" fill-rule="evenodd"/><path d="M365 359.081C365 348.586 373.507 340.077 384 340.077 394.493 340.077 403 348.586 403 359.081 403 369.577 394.493 378.086 384 378.086 373.507 378.086 365 369.577 365 359.081Z" fill="#00B050" fill-rule="evenodd"/><path d="M192 403.592C192 393.372 200.283 385.087 210.5 385.087 220.717 385.087 229 393.372 229 403.592 229 413.811 220.717 422.096 210.5 422.096 200.283 422.096 192 413.811 192 403.592Z" fill="#00B050" fill-rule="evenodd"/><g clip-path="url(#clip2)"><g filter="url(#fx0)" transform="translate(239 33)"><g><path d="M8.82996 21.0091C8.82996 14.288 14.2773 8.83944 20.9969 8.83944L111.663 8.83944C118.383 8.83944 123.83 14.288 123.83 21.0091L123.83 69.6863C123.83 76.4074 118.383 81.856 111.663 81.856L20.9969 81.856C14.2773 81.856 8.82996 76.4074 8.82996 69.6863Z" stroke="#000000" stroke-width="4" stroke-miterlimit="8" fill="#D9D9D9" fill-rule="evenodd"/></g></g></g><path d="M245 51.1785C245 44.4574 250.447 39.0088 257.167 39.0088L347.833 39.0088C354.553 39.0088 360 44.4574 360 51.1785L360 99.8557C360 106.577 354.553 112.025 347.833 112.025L257.167 112.025C250.447 112.025 245 106.577 245 99.8557Z" stroke="#000000" stroke-width="4.0022" stroke-miterlimit="8" fill="#D9D9D9" fill-rule="evenodd"/><path d="M308.002 124.028 308.002 189.83 299.998 189.83 299.998 124.028ZM324.011 185.827 304 209.845 283.989 185.827Z"/></g></svg>