<svg width="1280" height="720" xmlns="http://www.w3.org/2000/svg" xmlns:xlink="http://www.w3.org/1999/xlink" overflow="hidden"><g><rect x="0" y="0" width="1280" height="720" fill="#FFFFFF"/><path d="M152 439.5C152 342.574 230.574 264 327.5 264 424.426 264 503 342.574 503 439.5 503 536.426 424.426 615 327.5 615 230.574 615 152 536.426 152 439.5Z" stroke="#000000" stroke-width="6" stroke-miterlimit="8" fill="none" fill-rule="evenodd"/><path d="M311 579C311 568.507 319.507 560 330 560 340.493 560 349 568.507 349 579 349 589.493 340.493 598 330 598 319.507 598 311 589.493 311 579Z" fill="#7030A0" fill-rule="evenodd"/><path d="M288 404C288 393.507 296.507 385 307 385 317.493 385 326 393.507 326 404 326 414.493 317.493 423 307 423 296.507 423 288 414.493 288 404Z" fill="#7030A0" fill-rule="evenodd"/><path d="M223 395C223 384.507 231.283 376 241.5 376 251.717 376 260 384.507 260 395 260 405.493 251.717 414 241.5 414 231.283 414 223 405.493 223 395Z" fill="#7030A0" fill-rule="evenodd"/><path d="M342 525C342 514.507 350.283 506 360.5 506 370.717 506 379 514.507 379 525 379 535.493 370.717 544 360.5 544 350.283 544 342 535.493 342 525Z" fill="#7030A0" fill-rule="evenodd"/><path d="M303 451C303 440.507 311.507 432 322 432 332.493 432 341 440.507 341 451 341 461.493 332.493 470 322 470 311.507 470 303 461.493 303 451Z" fill="#7030A0" fill-rule="evenodd"/><path d="M417 359C417 348.507 425.507 340 436 340 446.493 340 455 348.507 455 359 455 369.493 446.493 378 436 378 425.507 378 417 369.493 417 359Z" fill="#7030A0" fill-rule="evenodd"/><path d="M192 477C192 466.507 200.507 458 211 458 221.493 458 230 466.507 230 477 230 487.493 221.493 496 211 496 200.507 496 192 487.493 192 477Z" fill="#7030A0" fill-rule="evenodd"/><path d="M211 326C211 315.507 219.283 307 229.5 307 239.717 307 248 315.507 248 326 248 336.493 239.717 345 229.5 345 219.283 345 211 336.493 211 326Z" fill="#7030A0" fill-rule="evenodd"/><path d="M352 335C352 324.507 360.507 316 371 316 381.493 316 390 324.507 390 335 390 345.493 381.493 354 371 354 360.507 354 352 345.493 352 335Z" fill="#7030A0" fill-rule="evenodd"/><path d="M262 311C262 300.507 270.283 292 280.5 292 290.717 292 299 300.507 299 311 299 321.493 290.717 330 280.5 330 270.283 330 262 321.493 262 311Z" fill="#7030A0" fill-rule="evenodd"/><path d="M250 489C250 478.507 258.507 470 269 470 279.493 470 288 478.507 288 489 288 499.493 279.493 508 269 508 258.507 508 250 499.493 250 489Z" fill="#7030A0" fill-rule="evenodd"/><path d="M294 343C294 332.507 302.283 324 312.5 324 322.717 324 331 332.507 331 343 331 353.493 322.717 362 312.5 362 302.283 362 294 353.493 294 343Z" fill="#7030A0" fill-rule="evenodd"/><path d="M410 497C410 486.507 418.507 478 429 478 439.493 478 448 486.507 448 497 448 507.493 439.493 516 429 516 418.507 516 410 507.493 410 497Z" fill="#7030A0" fill-rule="evenodd"/><path d="M272 524C272 513.507 280.507 505 291 505 301.493 505 310 513.507 310 524 310 534.493 301.493 543 291 543 280.507 543 272 534.493 272 524Z" fill="#7030A0" fill-rule="evenodd"/><path d="M342 391C342 380.507 350.283 372 360.5 372 370.717 372 379 380.507 379 391 379 401.493 370.717 410 360.5 410 350.283 410 342 401.493 342 391Z" fill="#7030A0" fill-rule="evenodd"/><path d="M439 416.5C439 406.283 447.507 398 458 398 468.493 398 477 406.283 477 416.5 477 426.717 468.493 435 458 435 447.507 435 439 426.717 439 416.5Z" fill="#7030A0" fill-rule="evenodd"/><path d="M353 476C353 465.507 361.283 457 371.5 457 381.717 457 390 465.507 390 476 390 486.493 381.717 495 371.5 495 361.283 495 353 486.493 353 476Z" fill="#7030A0" fill-rule="evenodd"/><path d="M390 439C390 428.507 398.283 420 408.5 420 418.717 420 427 428.507 427 439 427 449.493 418.717 458 408.5 458 398.283 458 390 449.493 390 439Z" fill="#7030A0" fill-rule="evenodd"/><path d="M388 398C388 387.507 396.507 379 407 379 417.493 379 426 387.507 426 398 426 408.493 417.493 417 407 417 396.507 417 388 408.493 388 398Z" fill="#00B050" fill-rule="evenodd"/><path d="M580 449C580 438.507 588.507 430 599 430 609.493 430 618 438.507 618 449 618 459.493 609.493 468 599 468 588.507 468 580 459.493 580 449Z" fill="#00B050" fill-rule="evenodd"/><path d="M268 90.1669C268 83.4473 273.447 78 280.167 78L371.833 78C378.553 78 384 83.4473 384 90.1669L384 138.833C384 145.553 378.553 151 371.833 151L280.167 151C273.447 151 268 145.553 268 138.833Z" stroke="#000000" stroke-width="4" stroke-miterlimit="8" fill="#FFFF00" fill-rule="evenodd"/><path d="M332 163 332 228.751 324 228.751 324 163ZM348 224.751 328 248.751 308 224.751Z"/><path d="M548.592 466 503 466" stroke="#000000" stroke-width="6" stroke-miterlimit="8" fill="none" fill-rule="evenodd"/><path d="M0 0 47.771 0.000104987" stroke="#000000" stroke-width="6" stroke-miterlimit="8" fill="none" fill-rule="evenodd" transform="matrix(-1 0 0 1 548.771 432)"/><rect x="498" y="435" width="59" height="28" stroke="#FFFFFF" stroke-width="2" stroke-miterlimit="8" fill="#FFFFFF"/><path d="M0.0232103-3.99993 94.9855-3.4489 94.9391 4.55097-0.0232103 3.99993ZM91.0784-19.4718 114.962 0.667087 90.8463 20.5275Z" transform="matrix(1 0 0 -1 655 448.667)"/><g><g><g><path d="M1103.84 466.777C1103.84 471.005 1099.38 475.63 1099.28 476.837 1099.26 477.133 1099.45 477.436 1099.75 477.756 1099.76 477.771 1099.77 477.779 1099.79 477.795 1100.74 478.799 1102.82 479.998 1102.89 481.571 1100.85 484.164 1086.09 483.961 1076.47 483.712L1076.41 483.712C1073.74 483.642 1071.47 483.572 1069.97 483.572 1066.38 491.451 1058.44 496.933 1049.22 496.933 1040.82 496.933 1033.48 492.394 1029.52 485.627 1026.93 485.69 1024.41 485.721 1022.02 485.697 1022.02 485.697 1022.02 485.666 1022.02 485.612L1021.98 485.612C1021.05 485.604 1020.13 485.588 1019.25 485.565 1018.9 485.565 1018.57 485.549 1018.24 485.542L1018.2 485.542C1015.95 485.62 1014.24 485.62 1012.08 485.176 996.893 485.176 907.384 485.285 888.424 484.545L888.346 484.545C884.928 484.413 881.518 484.07 878.1 483.876 874.487 491.709 866.568 497.143 857.38 497.143 847.445 497.143 839.005 490.797 835.867 481.937 833.5 481.836 831.554 481.742 830.199 481.672 830.043 481.664 829.887 481.657 829.747 481.657L828.727 481.594 828.377 481.571 828.338 481.571C828.237 481.563 828.12 481.547 827.987 481.54 827.785 481.524 827.559 481.509 827.302 481.493 825.994 481.493 824.686 481.431 823.378 481.361 818.777 481.104 814.167 480.668 809.604 479.99 806.7 479.562 802.675 479.243 799.942 477.576 799.817 477.506 799.693 477.428 799.576 477.351 799.42 477.242 799.265 477.125 799.117 477 798.898 476.829 798.696 476.642 798.509 476.448 796.251 474.057 794.523 469.736 793.612 467.104 793.425 466.551 793.269 466.061 793.152 465.687 793.028 465.282 793.339 464.862 793.767 464.862L795.122 464.862C795.122 464.862 794.017 460.533 795.823 459.123 794.312 453.19 792.81 448.456 795.426 446.946 796.399 446.385 797.909 444.672 799.428 442.741 801.896 439.572 804.403 435.804 804.574 435.555L802.823 432.775C802.254 431.864 802.332 430.688 803.017 429.855L804.068 428.601C804.574 427.994 805.345 427.659 806.139 427.714 806.622 427.745 807.222 427.784 807.915 427.823 810.57 427.963 814.626 428.088 818.481 427.854 819.501 427.792 820.505 427.706 821.47 427.589L821.502 427.589C822.257 427.488 822.989 427.379 823.674 427.239 824.297 427.122 824.881 426.982 825.418 426.819 826.197 426.585 827.232 426.25 828.501 425.83 840.5 421.851 873.319 410.265 907.056 405.718 908.496 405.531 909.944 405.344 911.393 405.181 912.109 405.095 912.825 405.017 913.55 404.94 920.012 404.254 926.459 403.857 932.758 403.857 935.678 403.857 938.52 404.021 941.307 404.332 960.936 406.505 977.957 416.043 999.291 429.17L999.314 429.17C1013.52 429.17 1033.67 429.832 1051.42 431.444 1053.23 431.607 1055 431.778 1056.75 431.965 1061.52 432.452 1066.28 433.061 1071 433.883 1075.65 434.692 1080.51 435.495 1084.92 437.19 1085.68 437.478 1086.36 437.774 1086.96 438.078 1088.46 438.835 1089.97 439.588 1091.46 440.367 1091.47 440.367 1091.48 440.375 1091.49 440.382 1092.16 440.733 1092.79 441.075 1093.39 441.394 1093.41 441.394 1093.42 441.402 1093.43 441.41 1101.37 445.7 1103.84 447.982 1103.84 450.271 1103.84 453.081 1102.1 456.608 1102.1 456.608 1102.1 456.608 1103.84 462.549 1103.84 466.777Z"/><path d="M857.378 491.582C847.851 491.582 840.128 483.858 840.128 474.332 840.128 464.805 847.851 457.082 857.378 457.082 866.905 457.082 874.628 464.805 874.628 474.332 874.628 483.858 866.905 491.582 857.378 491.582ZM1066.47 474.12C1066.47 464.593 1058.74 456.87 1049.22 456.87 1039.69 456.87 1031.97 464.593 1031.97 474.12 1031.97 483.647 1039.69 491.37 1049.22 491.37 1058.74 491.37 1066.47 483.647 1066.47 474.12Z" fill="#555468"/><path d="M993.842 481.38C994.136 481.393 994.425 481.407 994.715 481.42L993.841 481.382C993.842 481.382 993.842 481.381 993.842 481.38ZM915.905 479.998C915.946 479.998 915.987 479.998 916.028 479.998L915.905 479.998 915.905 479.998ZM931.434 410.723C922.257 410.723 912.345 411.833 903.174 413.339L907.448 425.908C924.309 426.799 945.624 427.616 967.176 427.616 967.177 427.616 967.178 427.616 967.179 427.616 972.23 427.616 977.159 427.571 981.904 427.482 969.564 419.453 952.277 410.723 931.434 410.723ZM870.837 420.737C870.925 420.841 871.02 420.946 871.121 421.047 871.842 421.768 873.244 422.955 874.172 423.722 877.33 423.981 888.902 424.895 904.936 425.772L900.841 413.734C887.064 416.126 875.308 419.3 870.837 420.737ZM1103.88 466.777C1103.88 471.005 1099.42 475.638 1099.32 476.845 1099.3 477.133 1099.49 477.428 1099.79 477.755L1099.79 477.794C1099.86 479.344 1097.39 481.111 1094.75 480.924 1092.18 480.745 1077.51 480.932 1076.51 480.94L1076.51 469.681C1076.51 462.829 1069.51 446.299 1049.28 446.299 1029.06 446.299 1022.06 462.829 1022.06 469.681L1022.06 485.611 1021.98 485.611C1021.05 485.604 1020.13 485.588 1019.25 485.564 1018.9 485.564 1018.57 485.549 1018.24 485.541 1017.01 485.066 1010.66 482.668 1008.29 482.255 1004.43 481.93 999.813 481.655 994.716 481.42L994.888 481.427C994.543 481.411 994.192 481.395 993.842 481.38 964.357 480.062 919.569 480.075 910.42 479.95 899.59 479.802 889.794 481.5 884.64 481.5L884.64 469.587C884.64 462.735 877.641 446.205 857.42 446.205 837.199 446.205 830.199 462.735 830.199 469.587L830.199 481.671C830.199 481.679 829.748 481.656 829.748 481.656L828.728 481.593 828.377 481.57 828.339 481.57C828.237 481.562 828.121 481.547 827.988 481.539 827.794 481.524 827.577 481.509 827.333 481.494 824.366 478.838 815.98 475.133 806.972 474.868 797.97 474.596 796.525 467.582 795.125 464.869L795.162 464.869C795.162 464.869 794.056 460.539 795.862 459.13 794.352 453.19 792.849 448.456 795.465 446.953 798.081 445.442 804.622 435.577 804.622 435.577L802.862 432.774C802.294 431.863 802.372 430.687 803.057 429.862L804.108 428.609C804.614 427.993 805.385 427.666 806.179 427.721 806.646 427.752 807.238 427.783 807.916 427.822 810.57 427.962 814.627 428.087 818.481 427.853 819.501 427.791 820.506 427.705 821.471 427.588L821.502 427.588C822.273 427.495 823.021 427.378 823.721 427.246 824.336 427.121 824.92 426.981 825.457 426.818 826.236 426.584 827.272 426.249 828.533 425.829 840.524 421.858 873.327 410.272 907.057 405.717 908.497 405.53 909.945 405.343 911.393 405.18 912.11 405.094 912.826 405.016 913.55 404.938 920.012 404.253 926.46 403.856 932.759 403.856 935.678 403.856 938.52 404.019 941.308 404.331 960.945 406.496 977.981 416.034 999.315 429.169 1013.52 429.177 1033.67 429.839 1051.42 431.443 1053.23 431.606 1055 431.778 1056.75 431.964 1062.61 432.588 1068.44 433.329 1074.23 434.409 1076.98 434.922 1079.73 435.522 1082.4 436.34 1083.31 436.613 1084.15 436.893 1084.92 437.189 1087.18 438.058 1089.29 439.287 1091.46 440.366 1091.46 440.366 1091.49 440.381 1091.49 440.381 1092.16 440.724 1092.8 441.066 1093.39 441.393L1093.43 441.409C1101.4 445.699 1103.87 447.988 1103.87 450.27 1103.87 453.081 1102.14 456.616 1102.14 456.616 1102.14 456.616 1103.88 462.549 1103.88 466.777ZM988.502 430.13C989.186 430.11 989.454 429.23 988.894 428.836 977.594 420.883 957.172 407.92 931.435 407.92 904.323 407.92 869.242 417.751 867.587 418.993 866.759 419.717 867.897 421.787 869.139 423.029 870.381 424.27 873.071 426.443 873.071 426.443 873.071 426.443 933.979 431.687 988.502 430.13ZM1013.16 471.729 1013.15 471.728 1013.15 471.728 897.277 466.186C897.268 466.192 897.259 466.198 897.249 466.205L897.251 466.205C895.791 467.225 895.098 468.205 895.245 468.708 895.401 469.245 895.759 470.024 896.242 470.873L1010.21 474.664C1011.63 473.683 1012.86 472.617 1013.16 471.729ZM1078.47 453.517 1090.85 454.879C1091.36 453.517 1096.02 453.517 1096.02 453.517L1098.52 448.572C1098.52 448.572 1097.01 448.206 1094.94 447.731 1094.02 450.036 1092.36 451.827 1092.36 451.827L1075.78 450.09C1075.68 450.176 1075.62 450.223 1075.62 450.223L1078.47 453.517ZM1100.08 463.807C1100.08 463.433 1099.79 463.121 1099.42 463.095L1087.61 462.258C1087.2 462.229 1086.85 462.557 1086.85 462.971L1086.85 465.958C1086.85 466.353 1087.17 466.673 1087.56 466.673L1099.37 466.673C1099.76 466.673 1100.08 466.353 1100.08 465.958L1100.08 463.807ZM1013.15 471.728 897.277 466.186C897.268 466.192 897.26 466.198 897.251 466.205L1013.14 471.735C1013.15 471.733 1013.15 471.73 1013.15 471.728Z" fill="#E6342E"/><path d="M873.339 467.92 873.331 467.92 868.651 468.745 867.421 470.435 861.472 471.486 859.401 469.75 859.401 463.716 860.857 462.205 860.857 457.448C859.72 457.207 858.537 457.082 857.322 457.082 856.108 457.082 854.932 457.207 853.787 457.448L853.787 462.205 855.236 463.716 855.236 469.75 853.725 470.809 848.049 468.745 847.13 466.861 842.669 465.234 842.661 465.234C841.431 467.219 840.582 469.47 840.247 471.883L844.709 473.51 846.624 472.654 852.3 474.725 852.783 476.508 848.898 481.133 846.811 481.351 843.759 484.995C845.23 486.864 847.068 488.413 849.178 489.542L852.23 485.898 852.09 483.812 855.968 479.186 857.813 479.342 860.826 484.574 860.328 486.607 862.703 490.718C864.992 489.97 867.07 488.756 868.823 487.175L866.448 483.072 864.439 482.495 861.418 477.263 862.197 475.589 868.145 474.538 869.881 475.706 874.553 474.88C874.569 474.701 874.569 474.514 874.569 474.335 874.569 472.07 874.133 469.905 873.339 467.92ZM857.322 476.765C855.975 476.765 854.893 475.675 854.893 474.336 854.893 472.989 855.975 471.906 857.322 471.906 858.662 471.906 859.751 472.989 859.751 474.336 859.752 475.675 858.662 476.765 857.322 476.765ZM1065.18 467.708 1065.17 467.708 1060.49 468.534 1059.26 470.223 1053.31 471.274 1051.24 469.538 1051.24 463.504 1052.69 461.994 1052.69 457.236C1051.56 456.995 1050.37 456.87 1049.16 456.87 1047.94 456.87 1046.77 456.995 1045.62 457.236L1045.62 461.994 1047.07 463.504 1047.07 469.538 1045.56 470.597 1039.89 468.534 1038.97 466.649 1034.51 465.022 1034.5 465.022C1033.27 467.008 1032.42 469.258 1032.08 471.672L1036.55 473.299 1038.46 472.442 1044.14 474.513 1044.62 476.297 1040.73 480.922 1038.65 481.14 1035.6 484.784C1037.07 486.652 1038.91 488.202 1041.02 489.331L1044.07 485.687 1043.93 483.6 1047.8 478.975 1049.65 479.131 1052.66 484.363 1052.16 486.395 1054.54 490.506C1056.83 489.759 1058.91 488.544 1060.66 486.963L1058.28 482.86 1056.28 482.284 1053.26 477.052 1054.03 475.378 1059.98 474.326 1061.72 475.494 1066.39 474.669C1066.41 474.49 1066.41 474.303 1066.41 474.124 1066.41 471.858 1065.97 469.694 1065.18 467.708ZM1049.16 476.553C1047.81 476.553 1046.73 475.463 1046.73 474.124 1046.73 472.777 1047.81 471.695 1049.16 471.695 1050.5 471.695 1051.59 472.777 1051.59 474.124 1051.59 475.463 1050.5 476.553 1049.16 476.553Z" fill="#9392A3"/><path d="M1013.22 471.457C1013.2 471.545 1013.18 471.636 1013.15 471.728L897.277 466.186C897.268 466.192 897.259 466.198 897.249 466.205L897.221 466.203C899.143 464.836 902.405 463.379 906.819 462.846 902.669 452.105 900.007 441.057 899.933 439.712 899.801 437.347 903.153 430.927 904.425 428.558L906.991 428.697C904.532 433.275 902.2 438.414 902.265 439.582 902.336 440.862 905.089 452.072 909.235 462.657 909.611 462.643 909.994 462.636 910.384 462.636 910.691 462.636 911.002 462.64 911.317 462.649 919.43 462.886 969.768 463.425 996.866 467.156 998.633 458.571 999.679 442.403 999.353 440.505 999.058 438.878 992.035 431.286 986.927 430.173 987.456 430.165 987.978 430.149 988.499 430.134 989.185 430.111 989.457 429.23 988.897 428.841 988.406 428.498 987.9 428.14 987.371 427.775 993.242 429.059 1001.18 437.313 1001.66 440.108 1002.06 442.482 1000.97 458.701 999.178 467.49 1006.14 468.553 1011.25 469.856 1013.22 471.457ZM900.359 475.554C900.769 475.705 905.658 475.888 913.115 476.082 914.018 477.551 914.948 478.871 915.905 479.997 915.946 479.998 915.987 479.998 916.029 479.998L919.075 480.017C919.092 480.017 919.106 480.017 919.123 480.017 918.035 479.02 916.962 477.701 915.92 476.153 937.894 476.692 977.31 477.3 995.387 477.566 994.794 479.314 994.177 480.681 993.842 481.38 994.192 481.396 994.543 481.412 994.888 481.428L996.364 481.492C996.79 480.544 997.341 479.197 997.846 477.602 1002.28 477.667 1004.92 477.704 1004.92 477.704 1004.92 477.704 1007.8 476.301 1010.17 474.67L896.244 470.879C897.327 472.801 899.014 475.058 900.359 475.554ZM884.881 458.14C885.466 457.868 885.719 457.173 885.447 456.588 881.759 448.666 871.649 440.672 857.378 440.672 843.483 440.672 833.124 448.912 829.379 456.568 829.095 457.148 829.336 457.847 829.915 458.131 830.495 458.413 831.194 458.174 831.477 457.594 834.914 450.569 844.484 443.008 857.378 443.008 870.62 443.008 879.954 450.323 883.33 457.574 883.528 458 883.949 458.25 884.389 458.25 884.554 458.25 884.722 458.214 884.881 458.14ZM1076.66 459.046C1077.24 458.774 1077.5 458.079 1077.22 457.494 1073.54 449.572 1063.43 441.578 1049.16 441.578 1035.26 441.578 1024.9 449.817 1021.16 457.474 1020.87 458.053 1021.11 458.753 1021.69 459.036 1022.27 459.319 1022.97 459.079 1023.25 458.5 1026.69 451.475 1036.26 443.913 1049.16 443.913 1062.4 443.913 1071.73 451.229 1075.11 458.479 1075.3 458.905 1075.73 459.155 1076.17 459.155 1076.33 459.156 1076.5 459.12 1076.66 459.046ZM909.408 442.131C910.192 442.131 919.232 442.43 920.727 442.43 922.221 442.43 923.678 441.459 925.508 439.703 925.657 438.732 924.985 437.312 923.827 437.163 922.669 437.013 911.089 436.864 909.483 436.864 907.876 436.864 906.681 438.545 906.681 439.703 906.681 440.898 908.437 442.131 909.408 442.131ZM822.966 465.758C818.604 460.073 807.156 459.216 803.184 459.06 799.212 458.904 798.2 461.163 798.978 463.889 798.979 463.889 821.408 466.848 822.966 465.758ZM895.346 435.087C892.621 432.985 889.475 432.043 886.407 431.334 883.316 430.641 880.202 430.268 877.095 430.018 870.921 429.653 864.824 429.131 858.673 428.594 848.621 427.714 838.577 426.787 828.533 425.83 828.525 425.837 828.509 425.837 828.502 425.83 827.232 426.25 826.197 426.585 825.418 426.818 824.881 426.982 824.297 427.122 823.674 427.239 823.69 427.239 823.705 427.239 823.721 427.247 835.299 428.453 846.877 429.653 858.471 430.774 864.598 431.35 870.781 431.965 876.908 432.354 879.937 432.595 882.958 432.977 885.886 433.639 888.782 434.301 891.694 435.235 893.89 436.917L893.921 436.94C894.435 437.337 895.167 437.236 895.556 436.73 895.953 436.216 895.86 435.485 895.346 435.087Z" fill="#CF0B08"/><path d="M1094.95 447.72C1094.03 450.024 1092.37 451.815 1092.37 451.815L1075.78 450.079C1076.66 449.355 1081.03 445.82 1083.58 445.719 1085.42 445.648 1091.14 446.863 1094.95 447.72ZM804.588 435.531C804.588 435.531 801.98 439.463 799.41 442.741 803.474 442.406 806.714 438.147 806.714 438.147L804.588 435.531ZM981.904 427.482C977.159 427.571 972.23 427.616 967.18 427.616 967.179 427.616 967.177 427.616 967.176 427.616 945.625 427.616 924.309 426.799 907.449 425.908L903.174 413.339C912.345 411.833 922.257 410.723 931.435 410.723 952.277 410.723 969.564 419.453 981.904 427.482ZM904.936 425.772 900.841 413.734C887.064 416.127 875.308 419.301 870.837 420.737 870.925 420.842 871.02 420.946 871.121 421.047 871.842 421.768 873.244 422.955 874.172 423.723 877.33 423.981 888.902 424.895 904.936 425.772Z" fill="#D3E2EA"/></g></g></g></g></svg>