<svg width="1280" height="720" xmlns="http://www.w3.org/2000/svg" xmlns:xlink="http://www.w3.org/1999/xlink" overflow="hidden"><defs><filter id="fx0" x="-10%" y="-10%" width="120%" height="120%" filterUnits="userSpaceOnUse" primitiveUnits="userSpaceOnUse"><feComponentTransfer color-interpolation-filters="sRGB"><feFuncR type="discrete" tableValues="0 0"/><feFuncG type="discrete" tableValues="0 0"/><feFuncB type="discrete" tableValues="0 0"/><feFuncA type="linear" slope="0.4" intercept="0"/></feComponentTransfer><feGaussianBlur stdDeviation="1.77778 1.77778"/></filter><clipPath id="clip1"><path d="M843.167 44C836.447 44 831 49.4473 831 56.1669L831 104.833C831 111.553 836.447 117 843.167 117L934.833 117C941.553 117 947 111.553 947 104.833L947 56.1669C947 49.4473 941.553 44 934.833 44ZM1.90735e-05 1.07288e-05 1280 1.07288e-05 1280 720 1.90735e-05 720Z" fill-rule="evenodd" clip-rule="evenodd"/></clipPath></defs><g><rect x="0" y="0" width="1280" height="720" fill="#FFFFFF"/><path d="M256 405C256 308.35 334.35 230 431 230 527.65 230 606 308.35 606 405 606 501.65 527.65 580 431 580 334.35 580 256 501.65 256 405Z" stroke="#000000" stroke-width="6" stroke-miterlimit="8" fill="none" fill-rule="evenodd"/><path d="M716 405.5C716 308.574 794.35 230 891 230 987.65 230 1066 308.574 1066 405.5 1066 502.426 987.65 581 891 581 794.35 581 716 502.426 716 405.5Z" stroke="#000000" stroke-width="6" stroke-miterlimit="8" fill="none" fill-rule="evenodd"/><path d="M331 439C331 428.507 339.507 420 350 420 360.493 420 369 428.507 369 439 369 449.493 360.493 458 350 458 339.507 458 331 449.493 331 439Z" fill="#00B050" fill-rule="evenodd"/><path d="M376 466C376 455.507 384.507 447 395 447 405.493 447 414 455.507 414 466 414 476.493 405.493 485 395 485 384.507 485 376 476.493 376 466Z" fill="#00B050" fill-rule="evenodd"/><path d="M404 439C404 428.507 412.507 420 423 420 433.493 420 442 428.507 442 439 442 449.493 433.493 458 423 458 412.507 458 404 449.493 404 439Z" fill="#00B050" fill-rule="evenodd"/><path d="M412 683C412 672.507 420.507 664 431 664 441.493 664 450 672.507 450 683 450 693.493 441.493 702 431 702 420.507 702 412 693.493 412 683Z" fill="#00B050" fill-rule="evenodd"/><path d="M474 362C474 351.507 482.507 343 493 343 503.493 343 512 351.507 512 362 512 372.493 503.493 381 493 381 482.507 381 474 372.493 474 362Z" fill="#00B050" fill-rule="evenodd"/><path d="M497 447.5C497 437.283 505.283 429 515.5 429 525.717 429 534 437.283 534 447.5 534 457.717 525.717 466 515.5 466 505.283 466 497 457.717 497 447.5Z" fill="#00B050" fill-rule="evenodd"/><path d="M401 332C401 321.507 409.507 313 420 313 430.493 313 439 321.507 439 332 439 342.493 430.493 351 420 351 409.507 351 401 342.493 401 332Z" fill="#00B050" fill-rule="evenodd"/><path d="M525 376C525 365.507 533.283 357 543.5 357 553.717 357 562 365.507 562 376 562 386.493 553.717 395 543.5 395 533.283 395 525 386.493 525 376Z" fill="#00B050" fill-rule="evenodd"/><path d="M441 513C441 502.507 449.507 494 460 494 470.493 494 479 502.507 479 513 479 523.493 470.493 532 460 532 449.507 532 441 523.493 441 513Z" fill="#00B050" fill-rule="evenodd"/><path d="M459 292C459 281.507 467.507 273 478 273 488.493 273 497 281.507 497 292 497 302.493 488.493 311 478 311 467.507 311 459 302.493 459 292Z" fill="#00B050" fill-rule="evenodd"/><path d="M362 298.5C362 288.283 370.507 280 381 280 391.493 280 400 288.283 400 298.5 400 308.717 391.493 317 381 317 370.507 317 362 308.717 362 298.5Z" fill="#00B050" fill-rule="evenodd"/><path d="M450 439C450 428.507 458.507 420 469 420 479.493 420 488 428.507 488 439 488 449.493 479.493 458 469 458 458.507 458 450 449.493 450 439Z" fill="#00B050" fill-rule="evenodd"/><path d="M362 519C362 508.507 370.507 500 381 500 391.493 500 400 508.507 400 519 400 529.493 391.493 538 381 538 370.507 538 362 529.493 362 519Z" fill="#00B050" fill-rule="evenodd"/><path d="M537 426.5C537 416.283 545.507 408 556 408 566.493 408 575 416.283 575 426.5 575 436.717 566.493 445 556 445 545.507 445 537 436.717 537 426.5Z" fill="#00B050" fill-rule="evenodd"/><path d="M293 377C293 366.507 301.507 358 312 358 322.493 358 331 366.507 331 377 331 387.493 322.493 396 312 396 301.507 396 293 387.493 293 377Z" fill="#00B050" fill-rule="evenodd"/><path d="M315 490C315 479.507 323.507 471 334 471 344.493 471 353 479.507 353 490 353 500.493 344.493 509 334 509 323.507 509 315 500.493 315 490Z" fill="#00B050" fill-rule="evenodd"/><path d="M393 377C393 366.507 401.507 358 412 358 422.493 358 431 366.507 431 377 431 387.493 422.493 396 412 396 401.507 396 393 387.493 393 377Z" fill="#7030A0" fill-rule="evenodd"/><path d="M375 420.5C375 410.283 383.507 402 394 402 404.493 402 413 410.283 413 420.5 413 430.717 404.493 439 394 439 383.507 439 375 430.717 375 420.5Z" fill="#00B050" fill-rule="evenodd"/><path d="M519 326C519 315.507 527.507 307 538 307 548.493 307 557 315.507 557 326 557 336.493 548.493 345 538 345 527.507 345 519 336.493 519 326Z" fill="#00B050" fill-rule="evenodd"/><path d="M515 496C515 485.507 523.507 477 534 477 544.493 477 553 485.507 553 496 553 506.493 544.493 515 534 515 523.507 515 515 506.493 515 496Z" fill="#7030A0" fill-rule="evenodd"/><path d="M874 545C874 534.507 882.507 526 893 526 903.493 526 912 534.507 912 545 912 555.493 903.493 564 893 564 882.507 564 874 555.493 874 545Z" fill="#7030A0" fill-rule="evenodd"/><path d="M851 370.5C851 360.283 859.507 352 870 352 880.493 352 889 360.283 889 370.5 889 380.717 880.493 389 870 389 859.507 389 851 380.717 851 370.5Z" fill="#7030A0" fill-rule="evenodd"/><path d="M786 361C786 350.507 794.283 342 804.5 342 814.717 342 823 350.507 823 361 823 371.493 814.717 380 804.5 380 794.283 380 786 371.493 786 361Z" fill="#7030A0" fill-rule="evenodd"/><path d="M905 491C905 480.507 913.507 472 924 472 934.493 472 943 480.507 943 491 943 501.493 934.493 510 924 510 913.507 510 905 501.493 905 491Z" fill="#7030A0" fill-rule="evenodd"/><path d="M866 417C866 406.507 874.507 398 885 398 895.493 398 904 406.507 904 417 904 427.493 895.493 436 885 436 874.507 436 866 427.493 866 417Z" fill="#7030A0" fill-rule="evenodd"/><path d="M980 325C980 314.507 988.507 306 999 306 1009.49 306 1018 314.507 1018 325 1018 335.493 1009.49 344 999 344 988.507 344 980 335.493 980 325Z" fill="#7030A0" fill-rule="evenodd"/><path d="M755 443C755 432.507 763.507 424 774 424 784.493 424 793 432.507 793 443 793 453.493 784.493 462 774 462 763.507 462 755 453.493 755 443Z" fill="#7030A0" fill-rule="evenodd"/><path d="M774 292.5C774 282.283 782.507 274 793 274 803.493 274 812 282.283 812 292.5 812 302.717 803.493 311 793 311 782.507 311 774 302.717 774 292.5Z" fill="#7030A0" fill-rule="evenodd"/><path d="M915 301C915 290.507 923.507 282 934 282 944.493 282 953 290.507 953 301 953 311.493 944.493 320 934 320 923.507 320 915 311.493 915 301Z" fill="#7030A0" fill-rule="evenodd"/><path d="M825 277C825 266.507 833.507 258 844 258 854.493 258 863 266.507 863 277 863 287.493 854.493 296 844 296 833.507 296 825 287.493 825 277Z" fill="#7030A0" fill-rule="evenodd"/><path d="M814 455C814 444.507 822.283 436 832.5 436 842.717 436 851 444.507 851 455 851 465.493 842.717 474 832.5 474 822.283 474 814 465.493 814 455Z" fill="#7030A0" fill-rule="evenodd"/><path d="M857 309C857 298.507 865.507 290 876 290 886.493 290 895 298.507 895 309 895 319.493 886.493 328 876 328 865.507 328 857 319.493 857 309Z" fill="#7030A0" fill-rule="evenodd"/><path d="M973 463C973 452.507 981.507 444 992 444 1002.49 444 1011 452.507 1011 463 1011 473.493 1002.49 482 992 482 981.507 482 973 473.493 973 463Z" fill="#7030A0" fill-rule="evenodd"/><path d="M835 490.5C835 480.283 843.507 472 854 472 864.493 472 873 480.283 873 490.5 873 500.717 864.493 509 854 509 843.507 509 835 500.717 835 490.5Z" fill="#7030A0" fill-rule="evenodd"/><path d="M905 357C905 346.507 913.507 338 924 338 934.493 338 943 346.507 943 357 943 367.493 934.493 376 924 376 913.507 376 905 367.493 905 357Z" fill="#7030A0" fill-rule="evenodd"/><path d="M1003 383C1003 372.507 1011.28 364 1021.5 364 1031.72 364 1040 372.507 1040 383 1040 393.493 1031.72 402 1021.5 402 1011.28 402 1003 393.493 1003 383Z" fill="#7030A0" fill-rule="evenodd"/><path d="M916 442C916 431.507 924.507 423 935 423 945.493 423 954 431.507 954 442 954 452.493 945.493 461 935 461 924.507 461 916 452.493 916 442Z" fill="#7030A0" fill-rule="evenodd"/><path d="M953 405C953 394.507 961.507 386 972 386 982.493 386 991 394.507 991 405 991 415.493 982.493 424 972 424 961.507 424 953 415.493 953 405Z" fill="#7030A0" fill-rule="evenodd"/><path d="M952 364C952 353.507 960.283 345 970.5 345 980.717 345 989 353.507 989 364 989 374.493 980.717 383 970.5 383 960.283 383 952 374.493 952 364Z" fill="#00B050" fill-rule="evenodd"/><path d="M778 408C778 397.507 786.507 389 797 389 807.493 389 816 397.507 816 408 816 418.493 807.493 427 797 427 786.507 427 778 418.493 778 408Z" fill="#00B050" fill-rule="evenodd"/><path d="M365 56.1669C365 49.4473 370.447 44 377.167 44L468.833 44C475.553 44 481 49.4473 481 56.1669L481 104.833C481 111.553 475.553 117 468.833 117L377.167 117C370.447 117 365 111.553 365 104.833Z" stroke="#000000" stroke-width="4" stroke-miterlimit="8" fill="#FFFF00" fill-rule="evenodd"/><g clip-path="url(#clip1)"><g filter="url(#fx0)" transform="translate(825 38)"><g><path d="M8.82843 20.9954C8.82843 14.2758 14.2758 8.82843 20.9954 8.82843L112.661 8.82843C119.381 8.82843 124.828 14.2758 124.828 20.9954L124.828 69.6615C124.828 76.3811 119.381 81.8284 112.661 81.8284L20.9954 81.8284C14.2758 81.8284 8.82843 76.3811 8.82843 69.6615Z" stroke="#000000" stroke-width="4" stroke-miterlimit="8" fill="#D9D9D9" fill-rule="evenodd"/></g></g></g><path d="M831 56.1669C831 49.4473 836.447 44 843.167 44L934.833 44C941.553 44 947 49.4473 947 56.1669L947 104.833C947 111.553 941.553 117 934.833 117L843.167 117C836.447 117 831 111.553 831 104.833Z" stroke="#000000" stroke-width="4" stroke-miterlimit="8" fill="#D9D9D9" fill-rule="evenodd"/><text font-family="Aptos,Aptos_MSFontService,sans-serif" font-weight="400" font-size="48" transform="translate(405.96 94)">G</text><text font-family="Aptos,Aptos_MSFontService,sans-serif" font-weight="400" font-size="48" transform="translate(875.339 95)">P</text><path d="M426 129 426 194.751 418 194.751 418 129ZM442 190.751 422 214.751 402 190.751Z"/><path d="M127 119.339C127 63.3708 172.371 18 228.338 18L1080.66 18C1136.63 18 1182 63.3708 1182 119.339L1182 524.68C1182 580.648 1136.63 626.018 1080.66 626.018L228.338 626.018C172.371 626.018 127 580.648 127 524.68Z" stroke="#042433" stroke-width="8" stroke-miterlimit="8" fill="none" fill-rule="evenodd"/><path d="M413 580 413 625.592" stroke="#000000" stroke-width="6" stroke-miterlimit="8" fill="none" fill-rule="evenodd"/><path d="M876 580 876 625.592" stroke="#000000" stroke-width="6" stroke-miterlimit="8" fill="none" fill-rule="evenodd"/><path d="M909 580 909 625.592" stroke="#000000" stroke-width="6" stroke-miterlimit="8" fill="none" fill-rule="evenodd"/><path d="M446 580 446 625.592" stroke="#000000" stroke-width="6" stroke-miterlimit="8" fill="none" fill-rule="evenodd"/><rect x="417" y="574" width="25" height="59" stroke="#FFFFFF" stroke-width="2" stroke-miterlimit="8" fill="#FFFFFF"/></g></svg>